<?xml version="1.0" encoding="UTF-8"?>
<svg id="Capa_1" data-name="Capa 1" xmlns="http://www.w3.org/2000/svg" viewBox="0 0 155.48 155.48">
  <defs>
    <style>
      .cls-1 {
        fill: #9d9d9c;
      }

      .cls-2, .cls-3 {
        fill: none;
      }

      .cls-3 {
        stroke: #dadada;
        stroke-miterlimit: 10;
        stroke-width: 2px;
      }
    </style>
  </defs>
  <g>
    <path class="cls-2" d="M2.49,4.68H149.49V149.68H2.49V4.68ZM141.61,78c.14-34.89-28.25-64.04-62.58-64.24-36.1-.21-64.91,27.94-65.22,63.71-.3,34.81,28.53,64.12,63.19,64.24,35.77,.12,64.46-28.16,64.6-63.71Z"/>
    <path class="cls-1" d="M141.61,78c-.15,35.55-28.83,63.84-64.6,63.71-34.66-.12-63.49-29.43-63.19-64.24,.31-35.77,29.12-63.92,65.22-63.71,34.32,.2,62.72,29.35,62.58,64.24Zm-11.72-.42c-.07-28.99-23.46-52.1-52.66-52.03-28.28,.07-51.65,23.62-51.69,52.09-.04,28.91,23.47,52.32,52.5,52.28,28.64-.04,51.92-23.54,51.85-52.34Z"/>
    <path class="cls-2" d="M129.89,77.59c.07,28.8-23.22,52.3-51.85,52.34-29.03,.04-52.54-23.37-52.5-52.28,.04-28.46,23.42-52.02,51.69-52.09,29.2-.07,52.59,23.04,52.66,52.03Zm-54.1,36.08c11.58,.04,21.31-3.75,28.56-10.45,3.59-3.31,4.19-6.71,1.69-9.57-2.5-2.87-5.89-2.64-9.54,.65-11.33,10.2-25.91,10.2-37.47,0-3.74-3.3-7.17-3.58-9.52-.63-3,3.77-1.31,6.81,1.73,9.53,7.49,6.7,16.21,10.3,24.55,10.46Zm-18.17-55.83c-4.2,.12-7.93,4.12-7.69,8.25,.24,4.04,3.91,7.53,7.92,7.52,4.47,0,7.75-3.41,7.69-8.01-.06-4.57-3.45-7.9-7.93-7.77Zm40.33,15.78c4.47-.04,7.71-3.48,7.62-8.07-.09-4.56-3.53-7.87-7.99-7.7-4.01,.15-7.58,3.81-7.62,7.82-.04,4.19,3.78,7.99,7.99,7.95Z"/>
    <path class="cls-1" d="M75.78,113.67c-8.34-.16-17.07-3.76-24.55-10.46-3.04-2.72-4.72-5.76-1.73-9.53,2.35-2.95,5.78-2.67,9.52,.63,11.56,10.19,26.14,10.19,37.47,0,3.65-3.29,7.04-3.52,9.54-.65,2.5,2.86,1.89,6.26-1.69,9.57-7.25,6.69-16.98,10.49-28.56,10.45Z"/>
    <path class="cls-1" d="M57.61,57.84c4.48-.13,7.87,3.19,7.93,7.77,.06,4.59-3.22,8-7.69,8.01-4.01,0-7.68-3.49-7.92-7.52-.24-4.13,3.48-8.13,7.69-8.25Z"/>
    <path class="cls-1" d="M97.94,73.61c-4.21,.04-8.03-3.76-7.99-7.95,.04-4.01,3.61-7.67,7.62-7.82,4.47-.17,7.91,3.14,7.99,7.7,.09,4.6-3.15,8.03-7.62,8.07Z"/>
  </g>
  <circle class="cls-3" cx="77.74" cy="77.74" r="76.74"/>
</svg>